<?xml version="1.0" encoding="UTF-8" standalone="no"?>
<svg
   xmlns:dc="http://purl.org/dc/elements/1.1/"
   xmlns:cc="http://creativecommons.org/ns#"
   xmlns:rdf="http://www.w3.org/1999/02/22-rdf-syntax-ns#"
   xmlns:svg="http://www.w3.org/2000/svg"
   xmlns="http://www.w3.org/2000/svg"
   viewBox="0 0 1600 1600"
   height="1600"
   width="1600"
   id="svg64"
   version="1.1">
  <metadata
     id="metadata70">
    <rdf:RDF>
      <cc:Work
         rdf:about="">
        <dc:format>image/svg+xml</dc:format>
        <dc:type
           rdf:resource="http://purl.org/dc/dcmitype/StillImage" />
        <dc:title></dc:title>
      </cc:Work>
    </rdf:RDF>
  </metadata>
  <defs
     id="defs68" />
  <path
     id="path74"
     d="m 1221.256,1081.1019 c -6.1798,-0.3595 -21.7358,-2.1632 -34.5688,-4.0085 -24.1779,-3.4764 -26.1681,-3.471 -30.1651,0.083 -0.9447,0.8401 -2.0446,1.2078 -2.4444,0.8174 -0.6398,-0.6247 -8.1677,-87.07851 -7.6334,-87.66457 0.1153,-0.12652 1.6066,-0.50446 3.3139,-0.83996 2.8869,-0.56724 3.1042,-0.42478 3.1042,2.03597 0,3.73271 5.3996,18.77566 9.9109,27.61056 14.836,29.0554 53.8937,44.4187 79.2795,31.1842 9.5235,-4.9648 15.5906,-13.8734 16.8993,-24.814 1.1789,-9.854 -3.9221,-20.6131 -11.6478,-24.5678 -1.6981,-0.8693 -15.9939,-6.46147 -31.7684,-12.42704 -15.7746,-5.96557 -30.5035,-11.89782 -32.7313,-13.18273 -11.6198,-6.70205 -20.5038,-16.92062 -24.8939,-28.63318 -3.1081,-8.29251 -4.3282,-20.29689 -3.0722,-30.22786 2.1635,-17.10513 7.9232,-28.55108 20.4422,-40.62327 9.9159,-9.56192 19.3092,-15.16574 33.3243,-19.88032 17.7101,-5.95748 28.8248,-5.91061 56.3558,0.23764 8.1848,1.82785 15.8791,3.31356 17.0984,3.30157 1.2192,-0.012 5.0437,-1.51838 8.4987,-3.34752 3.4552,-1.82914 6.3501,-3.22327 6.4334,-3.09807 0.083,0.12521 1.3512,13.83508 2.8174,30.46637 1.4664,16.6313 2.9069,32.23169 3.2012,34.66759 0.5181,4.2889 0.437,4.46237 -2.5654,5.49077 -2.9788,1.02015 -3.1431,0.94047 -4.1851,-2.02897 -3.1409,-8.95104 -10.3236,-20.66398 -16.3802,-26.71134 -16.4626,-16.4377 -45.1294,-21.18674 -56.3771,-9.33961 -5.3554,5.64091 -8.3001,17.7501 -6.1507,25.29269 1.6333,5.73134 7.335,11.92183 14.3387,15.56766 3.128,1.62838 17.0296,7.09016 30.8923,12.13724 13.8628,5.04718 27.9013,10.58864 31.1967,12.31435 13.3068,6.96835 24.3038,22.11967 27.7299,38.20513 2.17,10.18833 1.4265,28.7928 -1.5153,37.9183 -7.7408,24.0116 -29.8562,42.3333 -61.6096,51.0413 -10.4412,2.8633 -22.704,3.8618 -37.1281,3.0231 z m -780.66542,-9.3324 c 0,-3.3563 0.32738,-3.8581 3.14771,-4.824 6.988,-2.3934 10.34309,-8.1058 12.44498,-21.1888 1.10787,-6.8958 1.23903,-109.72383 0.18692,-146.55362 l -0.63529,-22.23889 -2.95165,-4.15994 c -2.25921,-3.18403 -4.03441,-4.49775 -7.56703,-5.59988 -4.54716,-1.41865 -4.61546,-1.50024 -4.62051,-5.51976 l -0.005,-4.07983 h 45.92149 45.9215 v 4.31982 c 0,3.89541 -0.22578,4.31981 -2.29815,4.31981 -1.26397,0 -3.76832,0.97343 -5.56522,2.16318 -7.22884,4.78627 -9.72358,13.52275 -9.72358,34.05148 v 14.69218 l 28.5788,-0.25449 28.5788,-0.25448 -0.0367,-18.23923 c -0.0344,-17.11179 -0.18108,-18.55841 -2.37285,-23.4027 -1.89495,-4.18827 -3.08746,-5.49873 -6.31417,-6.93862 -2.1879,-0.97633 -4.7727,-1.78464 -5.74402,-1.79624 -1.47084,-0.0176 -1.71581,-0.70299 -1.46559,-4.1009 l 0.30045,-4.07983 45.67724,-0.24948 45.67723,-0.24949 v 4.32931 c 0,3.32729 -0.36157,4.32931 -1.56218,4.32931 -3.43537,0 -8.37001,3.28939 -10.62812,7.08463 -1.29422,2.1752 -2.81476,6.76278 -3.37898,10.19464 -1.18597,7.21357 -1.31444,121.48452 -0.17214,153.11342 0.78477,21.7295 1.35867,24.2053 6.53902,28.2088 1.40869,1.0887 4.05552,2.2549 5.88184,2.5915 3.09999,0.5714 3.32056,0.86 3.32056,4.3451 v 3.733 H 601.31591 554.9059 v -3.733 c 0,-3.5106 0.205,-3.7708 3.44057,-4.3672 4.72067,-0.8701 9.75963,-5.4932 11.88459,-10.9038 1.64098,-4.1783 1.77322,-8.7389 1.77322,-61.15258 v -56.63759 l -28.5788,-0.25448 -28.5788,-0.25449 0.0215,57.37206 c 0.0201,53.89578 0.13178,57.61068 1.84217,61.31098 2.31897,5.017 6.41585,8.7718 11.08233,10.1568 3.406,1.0109 3.66394,1.3471 3.66394,4.7754 v 3.6879 h -45.43296 -45.43297 v -3.746 z m 217.88285,-0.017 c 0,-3.4314 0.26838,-3.8215 3.04097,-4.4198 1.67253,-0.361 4.72456,-2.1506 6.78228,-3.9771 7.22799,-6.4158 6.87723,-1.1725 6.57164,-98.2348 l -0.27351,-86.8766 -2.2557,-4.15197 c -2.2316,-4.10766 -7.92654,-7.77428 -12.15583,-7.82644 -1.37193,-0.0169 -1.70985,-0.87479 -1.70985,-4.34089 v -4.31982 h 46.41003 46.41002 l -0.0109,4.07983 c -0.0108,4.03014 -0.0729,4.10321 -5.10692,5.99974 -4.5868,1.72806 -5.39121,2.48868 -8.04982,7.6115 l -2.95378,5.69158 v 85.98454 c 0,81.18123 0.1004,86.24013 1.79707,90.56073 1.90172,4.8428 6.11675,8.7385 10.66036,9.8524 2.356,0.5777 2.6869,1.1189 2.6869,4.3946 v 3.7358 h -45.9215 -45.9215 v -3.7636 z m 100.6416,0.1637 c 0.005,-3.4482 0.19984,-3.6605 4.62659,-5.0398 5.56793,-1.7348 8.36412,-5.3654 10.21159,-13.2586 1.88711,-8.0626 1.86623,-172.78071 -0.0226,-178.0238 -1.41165,-3.91859 -5.91122,-7.85177 -10.17972,-8.89835 -2.42149,-0.59371 -2.6869,-1.07521 -2.6869,-4.87453 l -10e-6,-4.21604 h 54.22645 54.22645 v 3.74384 c 0,2.99873 -0.6806,4.41253 -3.41969,7.1037 -3.92471,3.85604 -4.52088,8.24436 -1.8258,13.4391 0.87664,1.68971 10.43955,15.77006 21.25091,31.28963 l 19.65701,28.21751 0.28266,-29.17747 c 0.15545,-16.04754 0.0354,-30.53033 -0.26691,-32.18393 -0.96509,-5.28 -5.74548,-10.61717 -11.22092,-12.52786 -4.86224,-1.69671 -4.9162,-1.76047 -4.9162,-5.81002 v -4.0945 h 28.33454 28.33454 v 4.31982 c 0,3.79352 -0.25848,4.31981 -2.12159,4.31981 -3.2891,0 -10.00037,7.5253 -11.6288,13.0393 -1.16052,3.92959 -1.39393,18.94588 -1.39393,89.67634 v 84.95635 l 2.44263,4.7998 c 2.01436,3.9582 3.34141,5.2205 7.56869,7.1997 4.8363,2.2642 5.12626,2.6034 5.12952,5.9997 l 0.004,3.5999 h -28.82307 -28.82306 v -3.7199 c 0,-3.342 0.28961,-3.7767 2.8511,-4.28 4.13835,-0.8132 9.33374,-5.7189 10.65894,-10.0646 2.54038,-8.3308 0.92315,-19.0026 -4.46429,-29.4588 -2.26852,-4.4028 -91.84413,-126.01992 -96.1351,-130.5229 -0.53536,-0.56177 -0.78365,30.60234 -0.62335,78.23667 l 0.26644,79.17033 2.28023,4.5491 c 1.83957,3.6699 3.20849,4.9674 7.08363,6.7141 4.50943,2.0326 4.80342,2.3857 4.80342,5.7705 v 3.6055 h -27.84602 -27.84602 l 0.005,-3.5999 z m 265.26487,2.5018 c -10.7476,-1.1646 -25.89383,-4.9923 -33.38809,-8.438 -18.99553,-8.7335 -34.68994,-24.5714 -46.42187,-46.8461 l -3.72815,-7.0787 v -56.84118 -56.8411 l 3.9801,-6.69185 c 10.90939,-18.34214 27.61493,-31.70716 48.33861,-38.67251 12.7636,-4.28996 21.5186,-5.48432 40.0128,-5.45856 17.9329,0.025 23.4636,0.66034 42.5019,4.88259 11.0761,2.45644 21.3221,2.95094 24.7348,1.19376 1.1738,-0.60438 3.7829,-2.3686 5.7981,-3.9205 2.0151,-1.55191 3.6639,-2.28729 3.6639,-1.63417 0,1.60488 6.6791,67.78594 7.2233,71.57288 0.3457,2.40623 0,3.19638 -1.7566,3.98143 -2.033,0.91014 -2.38,0.54641 -4.8986,-5.13386 -4.0246,-9.07651 -13.23,-22.22363 -19.9869,-28.54519 -10.0957,-9.44513 -29.6878,-16.98251 -44.143,-16.98251 -31.1698,0 -52.15949,32.2506 -54.35483,83.51645 -1.42024,33.16438 10.89313,68.39872 29.96673,85.74842 6.9274,6.3014 13.8873,9.7228 22.9231,11.2688 13.0019,2.2246 22.1263,-2.0895 27.0492,-12.7889 2.2891,-4.9751 2.3184,-5.4503 2.6024,-42.18586 0.2785,-36.05097 0.2265,-37.2706 -1.7494,-41.07588 -2.2361,-4.30647 -6.2592,-7.18501 -11.3547,-8.12423 -2.9973,-0.55236 -3.3045,-0.91734 -3.3045,-3.92537 v -3.31637 h 45.4329 45.433 v 3.25301 c 0,2.96148 -0.3083,3.30985 -3.4406,3.88717 -4.2656,0.7863 -9.6673,5.33804 -12.4941,10.52816 -2.1026,3.86047 -2.1459,4.73365 -2.4302,48.86557 l -0.2895,44.9347 2.4515,5.2613 c 2.0711,4.4444 3.14,5.5605 6.8847,7.1879 4.181,1.8171 4.433,2.1423 4.433,5.7216 v 3.7949 l -55.9363,-0.1256 c -30.765,-0.069 -59.4537,-0.5067 -63.7527,-0.9725 z m -723.50791,-5.4955 c 0,-3.6313 0.0902,-3.7253 4.07022,-4.2499 7.44411,-0.9809 15.18712,-8.0628 17.40927,-15.9228 0.62404,-2.2072 0.98382,-34.9196 0.98727,-89.76823 l 0.006,-86.2956 -6.93113,0.57091 c -4.63761,0.382 -8.92143,1.48663 -12.94595,3.33823 -7.29153,3.3547 -17.11805,11.21795 -21.64087,17.31717 -3.85195,5.19453 -10.02826,17.15082 -11.74195,22.7303 -1.18711,3.86508 -2.83467,4.99159 -5.15149,3.52228 -0.99164,-0.62887 0.0919,-8.50649 5.18216,-37.67721 3.53977,-20.28513 6.61711,-37.419 6.83854,-38.07528 0.28047,-0.83122 1.50015,-0.46144 4.0203,1.21887 l 3.6177,2.41208 67.98474,-0.2589 67.98433,-0.25891 4.34342,-2.13229 c 2.38889,-1.17276 4.42985,-2.03672 4.53547,-1.91992 0.3368,0.37245 12.12776,73.24214 12.12776,74.95106 0,0.90197 -0.98928,2.00017 -2.19838,2.4404 -2.0367,0.74167 -2.37973,0.29817 -4.66457,-6.03065 -7.03479,-19.48564 -21.7968,-35.08637 -37.79366,-39.94087 -3.4958,-1.06085 -8.28822,-1.92881 -10.64982,-1.92881 h -4.29382 l 0.008,82.3165 c 0.005,52.85527 0.37444,84.53937 1.03299,88.52717 1.18246,7.1607 5.01602,14.7099 8.82209,17.3726 1.44882,1.0136 4.87873,2.3519 7.62199,2.974 4.92991,1.1181 4.98778,1.1739 4.98778,4.8062 v 3.675 h -51.78383 -51.78381 v -3.7134 z M 17.52657,912.80244 v -10.07957 h 113.82669 113.82669 v 10.07957 10.07957 H 131.35326 17.52657 Z m 1303.38893,0 v -10.07957 h 129.9481 129.948 v 10.07957 10.07957 h -129.948 -129.9481 z M 21.160321,816.972 c 1.760949,-24.37798 3.449379,-46.15952 3.752066,-48.40342 l 0.550342,-4.07983 h 4.692652 4.692652 l 4.151853,11.27952 c 6.170299,16.76312 12.072504,27.41615 19.030066,34.34782 17.838785,17.77243 51.103358,25.86356 74.468138,18.1133 14.48688,-4.80539 25.34491,-16.92862 28.54333,-31.86925 2.40146,-11.21779 0.70191,-21.22044 -5.02667,-29.58447 -5.90863,-8.62687 -8.14427,-9.67914 -48.78899,-22.96413 C 86.640996,737.08327 66.909933,730.16112 63.378956,728.42897 39.37607,716.65417 20.534398,689.16473 18.005715,662.23078 c -1.721702,-18.33849 6.662135,-46.985 18.535246,-63.33256 11.002373,-15.1487 31.375195,-27.34014 51.461991,-30.79572 12.124848,-2.08588 31.354788,-2.69289 44.815888,-1.41466 16.82805,1.59795 28.3279,4.06502 45.06054,9.66686 7.85584,2.63003 15.36733,4.78186 16.69219,4.78186 1.32485,0 4.91944,-1.72792 7.98798,-3.83983 3.06854,-2.11191 5.72839,-3.83984 5.91079,-3.83984 0.18239,0 -0.22075,2.91588 -0.89588,6.47972 -0.67513,3.56385 -3.55504,19.33911 -6.3998,35.05614 l -5.1723,28.57639 -3.43118,-6.01736 c -8.36472,-14.66945 -34.22276,-34.465 -50.43135,-38.60759 -20.985,-5.36334 -43.866921,3.90522 -52.018693,21.07072 -2.32625,4.89847 -2.733514,6.97991 -2.723543,13.9194 0.0136,9.4697 1.834469,13.84012 8.3155,19.95871 5.322546,5.02491 9.793236,6.917 49.318906,20.87285 49.32935,17.41734 62.26161,24.06393 72.40245,37.21157 16.60215,21.52476 20.74779,56.57601 10.10828,85.46528 -9.6102,26.09446 -35.75471,49.65822 -64.14546,57.81365 -16.00818,4.59844 -32.63931,6.42639 -53.53917,5.88456 -15.995325,-0.41469 -22.31914,-1.09111 -45.702376,-4.88859 -14.926096,-2.42402 -28.191824,-4.40731 -29.479393,-4.40731 -1.28757,0 -5.343244,1.98166 -9.012609,4.40368 -3.669365,2.42203 -6.904122,4.54841 -7.188349,4.72529 -0.284227,0.17687 0.924,-19.62402 2.684948,-44.002 z M 1312.122,856.16484 c 0,-4.88812 0.1687,-5.27977 2.2751,-5.27977 3.2221,0 10.6931,-5.12325 13.6594,-9.36698 5.1791,-7.40929 5.0722,-4.81448 5.0722,-123.10738 0,-118.21855 0.1006,-115.72843 -5.0328,-124.54934 -2.4634,-4.23305 -5.4324,-6.26062 -10.8443,-7.40569 -3.112,-0.65844 -3.1755,-0.77678 -3.1755,-5.92033 v -5.24845 l 93.0643,0.34696 c 84.7946,0.31612 93.7155,0.4977 100.3922,2.04333 21.8581,5.06004 34.6703,17.95392 37.0072,37.24325 2.4028,19.83182 -4.4529,38.88313 -19.883,55.25295 -6.5342,6.93224 -20.7042,18.0367 -28.6045,22.41635 -2.6694,1.47973 -3.9675,2.78578 -3.6343,3.65644 0.285,0.74496 3.7404,6.36072 7.6786,12.47947 16.4148,25.50387 33.7756,57.64109 39.9763,74.00232 1.9009,5.01579 6.3752,17.32726 9.9429,27.35884 3.5676,10.03157 8.4571,22.25239 10.8657,27.15736 4.7116,9.59568 7.0311,11.76997 14.8006,13.87435 4.1483,1.1236 4.1524,1.12922 4.1524,5.7254 v 4.6007 h -61.0657 -61.0659 v -4.78151 c 0,-4.4224 0.2018,-4.82916 2.687,-5.41599 4.5134,-1.06583 9.8889,-4.09714 11.0521,-6.23245 2.5147,-4.61669 0.5651,-16.53136 -4.9101,-30.00649 -3.3267,-8.18723 -17.0255,-37.91107 -21.5131,-46.67959 -3.0613,-5.98132 -22.9176,-38.97611 -24.4596,-40.6439 -0.4097,-0.44308 -3.6515,0.83687 -7.2039,2.84435 l -6.4592,3.64995 v 44.73731 c 0,45.91161 0.4573,52.84316 3.9265,59.52433 2.5097,4.83345 8.9073,10.22698 13.6051,11.46983 l 3.9636,1.04861 v 5.24277 5.24278 h -58.1346 -58.1347 z m 104.4327,-157.33002 c 31.5071,-13.05552 52.2557,-39.46991 50.682,-64.52111 -0.7157,-11.39016 -6.3266,-19.81681 -16.6786,-25.04843 -4.0948,-2.06943 -6.7772,-2.64069 -13.9649,-2.97404 -15.4953,-0.71866 -25.0679,3.71789 -27.6367,12.80875 -1.017,3.59904 -1.66,82.99142 -0.6721,82.99142 0.2261,0 3.9477,-1.46547 8.2703,-3.25659 z m -122.0196,104.57052 c -5.2083,-1.89785 -7.6686,-1.96677 -79.8741,-2.23754 l -74.5003,-0.27939 v -3.76344 c 0,-3.57412 0.1952,-3.81511 3.8818,-4.79042 4.3236,-1.14388 8.2128,-5.38138 10.357,-11.28456 1.0564,-2.90847 1.3166,-20.94379 1.3511,-93.69287 0.039,-81.26992 -0.1127,-90.41331 -1.5465,-93.38213 -2.0544,-4.25329 -5.7624,-7.07867 -9.29,-7.07867 -2.6629,0 -2.7993,-0.20874 -2.7993,-4.28447 v -4.28446 l 71.5691,-0.30133 c 62.8958,-0.26482 72.2195,-0.49205 76.9357,-1.87506 2.9517,-0.86556 5.6044,-1.19567 5.8951,-0.73359 0.2907,0.46207 3.5494,17.23665 7.2416,37.27683 l 6.7131,36.43669 -2.8377,2.40636 -2.8376,2.40636 -1.2949,-4.96488 c -3.3381,-12.7971 -13.5266,-28.96942 -22.8423,-36.25762 -13.7952,-10.79272 -36.0842,-16.05395 -50.3627,-11.88788 -6.2075,1.81118 -12.1919,8.02326 -13.8095,14.33492 -0.5999,2.34132 -1.0909,11.22121 -1.0909,19.73307 v 15.47612 l 16.9297,-0.30187 c 16.5606,-0.29529 17.0174,-0.35895 20.9526,-2.92027 5.2825,-3.43818 8.9975,-9.77916 9.7115,-16.57584 0.4162,-3.96249 1.0596,-5.62617 2.4605,-6.36278 1.0433,-0.54858 2.1166,-0.78153 2.3851,-0.51769 0.5548,0.54502 13.2214,83.33486 12.805,83.69441 -0.1488,0.12845 -1.5955,0.51191 -3.2151,0.85213 -2.9074,0.61077 -2.974,0.53341 -5.2805,-6.12267 -4.5134,-13.02545 -11.8482,-21.51942 -22.8601,-26.47256 -5.0486,-2.27094 -6.1782,-2.39592 -19.3807,-2.14455 l -14.0195,0.26693 0.012,41.27824 c 0.013,45.55522 0.162,46.85581 6.4162,55.787 8.4813,12.11148 30.3498,13.17211 52.0029,2.52218 7.3446,-3.61244 10.5781,-5.98677 17.8677,-13.12065 12.176,-11.91577 21.0905,-25.23834 25.259,-37.74885 0.9234,-2.77188 1.9735,-5.03018 2.3334,-5.01844 0.3599,0.0117 1.6528,0.77643 2.8732,1.69931 l 2.2189,1.67798 -12.1836,42.08963 c -6.7011,23.1493 -12.3162,42.16497 -12.4781,42.25705 -0.1618,0.0921 -2.7125,-0.71374 -5.6681,-1.79073 z M 242.2488,797.25376 c 0,-3.63117 0.0902,-3.72533 4.07022,-4.24983 5.41491,-0.71358 11.33595,-4.95258 14.95919,-10.70962 l 2.95427,-4.6941 0.2785,-87.76698 0.27849,-87.76698 -5.16376,0.65127 c -11.91532,1.50278 -18.79314,4.46431 -28.16603,12.12805 -7.30906,5.97623 -14.40145,16.40283 -18.72744,27.53139 -2.61304,6.72203 -3.40908,7.91857 -5.10912,7.67967 -2.8821,-0.40501 -2.70981,-2.05843 4.35009,-41.74636 l 6.18039,-34.74365 4.07275,2.34503 4.07275,2.34504 66.35377,-0.0228 66.35378,-0.0227 5.81139,-2.34715 c 3.19626,-1.29093 5.86231,-2.25263 5.92454,-2.13712 0.43028,0.7987 12.31787,75.76462 12.05091,75.99586 -0.18566,0.16082 -1.28596,0.57843 -2.44513,0.92801 -1.858,0.56034 -2.30607,0.0346 -3.78425,-4.44055 -4.29367,-12.99892 -14.47057,-27.22634 -24.83965,-34.72607 -5.91232,-4.27625 -15.32608,-7.71269 -23.73926,-8.66588 l -4.641,-0.52582 0.0152,83.73807 c 0.0165,90.61837 0.0305,90.8792 5.27021,98.65849 3.18106,4.7228 7.20402,7.24539 12.89098,8.08329 4.24018,0.62473 4.29577,0.68184 4.29577,4.41393 v 3.78102 h -51.78382 -51.78381 v -3.71344 z m 135.81038,-0.007 c 0,-3.41258 0.25685,-3.77032 3.10939,-4.33084 4.98115,-0.9788 11.1538,-8.02614 12.46491,-14.23127 1.68574,-7.97812 0.9451,-176.57164 -0.79806,-181.66432 -1.68964,-4.93592 -6.95854,-10.12429 -10.28179,-10.12429 -2.36329,0 -2.54034,-0.30421 -2.54034,-4.36491 v -4.3649 l 73.52324,0.32091 c 66.48832,0.29023 74.07718,0.48127 79.31243,1.99661 18.65236,5.39894 27.03093,16.18079 27.03093,34.78447 0,19.38603 -10.54001,35.99532 -31.89,50.25332 -4.27322,2.85373 -8.14448,5.51168 -8.60281,5.90653 -0.45833,0.39485 3.11225,6.91559 7.93462,14.49053 8.90837,13.99323 22.36654,38.25909 26.5389,47.85118 1.26313,2.90387 5.28722,13.6569 8.94242,23.8956 3.65522,10.2387 7.07525,19.03772 7.6001,19.55339 0.62098,0.61011 1.61987,-0.35961 2.86004,-2.7765 3.47364,-6.76957 58.13969,-172.47684 58.61087,-177.66507 0.41742,-4.59623 0.20874,-5.2391 -2.59471,-7.99351 -2.37735,-2.33575 -3.04865,-3.82455 -3.04865,-6.76129 v -3.76599 h 42.01329 42.01329 v 4.58933 c 0,4.21443 -0.23868,4.67785 -2.92173,5.67287 -3.99469,1.48145 -5.3409,5.20977 -3.91218,10.83482 5.07008,19.96147 51.21081,179.45439 52.83548,182.63441 1.15201,2.25484 3.00031,5.07102 4.10734,6.25819 1.88752,2.02413 2.1245,2.05914 3.80768,0.56252 0.9872,-0.87776 2.55456,-3.793 3.48302,-6.47828 1.54149,-4.45832 1.71296,-12.42289 1.97433,-91.70463 0.19792,-60.03205 -0.0427,-88.37908 -0.77979,-91.86755 -1.14976,-5.44144 -5.48861,-10.29865 -10.24794,-11.47227 -2.12112,-0.52305 -2.42472,-1.12577 -2.42472,-4.81367 v -4.21574 h 53.73792 53.73793 v 3.74384 c 0,2.99873 -0.6806,4.41253 -3.41969,7.10369 -4.10317,4.03139 -4.50922,8.24976 -1.37507,14.2857 1.12454,2.16572 10.68745,16.67748 21.2509,32.24838 l 19.2063,28.31071 0.25796,-30.97098 0.25797,-30.97098 -2.39054,-5.13027 c -2.47119,-5.30337 -6.38625,-8.57422 -11.55987,-9.65773 -2.43446,-0.50986 -2.68689,-0.95731 -2.68689,-4.76254 v -4.19982 h 28.33453 28.33454 v 4.24353 c 0,3.91783 -0.22107,4.29126 -2.88017,4.86508 -4.04459,0.87279 -8.48736,5.70307 -10.52869,11.44701 -1.61398,4.54149 -1.73546,11.06499 -1.73546,93.19953 v 88.31623 l 2.44263,4.31982 c 1.8735,3.3133 3.637,4.87899 7.56868,6.71971 4.83631,2.26425 5.12627,2.60338 5.12953,5.99975 l 0.004,3.59985 H 911.5307 883.19616 v -3.647 c 0,-3.28664 0.33312,-3.76534 3.37133,-4.84475 11.66747,-4.14519 13.77845,-22.99557 4.54175,-40.55622 -3.53609,-6.72273 -94.72285,-133.21832 -96.09212,-133.30035 -1.14744,-0.0687 -0.89758,152.4338 0.25957,158.42865 1.54494,8.00393 3.8511,11.60844 9.07358,14.18193 4.28849,2.11325 4.58986,2.50718 4.58986,5.99974 v 3.738 H 740.5464 672.15268 v -3.73561 c 0,-3.419 0.31053,-3.85847 3.66396,-5.18529 7.52815,-2.97863 11.0089,-9.35803 10.95994,-20.08703 -0.0499,-10.94762 -4.63678,-21.31034 -14.49764,-32.7535 -12.50413,-14.51062 -26.89198,-21.87299 -45.68416,-23.37695 l -6.96429,-0.55736 -1.06124,3.24955 c -0.58367,1.78725 -3.9796,12.96915 -7.54647,24.84864 -5.53111,18.4213 -6.56025,23.02199 -6.99499,31.27047 l -0.50975,9.67137 3.11856,3.4897 c 1.7152,1.91935 4.62729,4.02573 6.47131,4.68086 3.01787,1.07219 3.35274,1.55542 3.35274,4.83815 v 3.647 h -62.04287 -62.04287 v -3.83984 c 0,-2.81737 0.40061,-3.83984 1.5045,-3.83984 0.82748,0 3.22551,-0.86263 5.32896,-1.91695 3.03644,-1.52198 3.95763,-2.61448 4.47084,-5.30227 0.98919,-5.18061 -1.83932,-14.58456 -9.52241,-31.65912 -9.59499,-21.32346 -13.41701,-28.66328 -23.09467,-44.35103 l -8.40968,-13.63235 -4.9241,2.59282 -4.92409,2.59281 -0.25621,36.43241 c -0.28115,39.97862 0.0632,43.15282 5.34705,49.28964 1.49906,1.74106 4.48427,3.75029 6.63379,4.46494 3.61955,1.20341 3.9304,1.59 4.20866,5.23408 l 0.30044,3.9347 h -45.48915 -45.48915 v -3.71985 z m 290.94603,-95.39562 c -0.23368,-0.65997 -5.00721,-18.34752 -10.60785,-39.30565 -5.60065,-20.95813 -10.46422,-37.80542 -10.80793,-37.43841 -0.63018,0.67291 -17.0068,56.62445 -17.61294,60.1755 -0.28358,1.66135 0.37599,1.98606 5.05507,2.48864 2.95965,0.31789 7.13655,1.13045 9.28201,1.8057 5.69403,1.79211 16.24368,7.34945 20.09809,10.58726 3.57653,3.00441 5.28176,3.63064 4.59355,1.68696 z M 462.91266,673.1899 c 19.14968,-8.4638 33.8728,-25.29219 36.18939,-41.36411 2.00989,-13.94401 -3.17644,-23.73252 -14.90637,-28.13385 -3.41163,-1.28011 -6.4182,-1.5793 -12.64409,-1.25824 -9.45507,0.48758 -13.68106,2.38775 -16.75917,7.5356 -1.87364,3.13351 -2.0069,5.17722 -2.3037,35.33128 l -0.31501,32.0054 2.26912,-0.68774 c 1.24801,-0.37825 5.05944,-1.921 8.46983,-3.42834 z m 555.11644,127.11022 c -7.4828,-0.78732 -20.36576,-3.35949 -26.38052,-5.26703 -23.38414,-7.41609 -42.17898,-24.39766 -55.2995,-49.96433 l -4.30077,-8.38046 v -56.29121 -56.2912 l 3.57909,-5.88533 c 14.27486,-23.47306 34.16703,-37.30826 61.47072,-42.75341 20.69218,-4.12664 42.13998,-3.51476 66.85238,1.90724 13.8499,3.03873 24.6997,3.72125 28.516,1.79387 1.2437,-0.62808 3.6901,-2.47081 5.4366,-4.09495 1.7465,-1.62416 3.178,-2.76027 3.181,-2.5247 0,0.23556 1.7436,17.27558 3.8675,37.86671 3.5678,34.58592 3.7393,37.52983 2.2504,38.63835 -0.8864,0.65997 -1.8574,1.18833 -2.1577,1.17414 -0.3003,-0.0142 -1.8587,-2.93007 -3.4631,-6.47972 -3.9248,-8.68358 -12.8459,-21.66684 -19.131,-27.842 -5.7299,-5.62954 -16.492,-11.39613 -27.6126,-14.79554 -5.3315,-1.62971 -9.4754,-2.151 -17.3182,-2.17854 -9.9875,-0.035 -10.5426,0.0769 -17.7624,3.58266 -19.86866,9.64784 -32.54903,35.0336 -36.12592,72.32351 -3.80831,39.7022 13.21532,84.66287 37.47492,98.97439 15.1146,8.91653 32.9898,7.48745 39.8809,-3.18833 5.0298,-7.79252 5.4062,-11.19409 5.4062,-48.85367 0,-33.1721 -0.082,-34.71257 -2.039,-38.39836 -2.5198,-4.74501 -7.4513,-8.15966 -11.7842,-8.15966 -3.1697,0 -3.2752,-0.12369 -3.2752,-3.83983 v -3.83984 h 45.433 45.433 v 3.35986 c 0,2.3852 -0.4365,3.35986 -1.5045,3.35986 -3.0904,0 -9.3643,4.02095 -12.133,7.77593 -4.6854,6.35492 -5.0105,10.22664 -4.7122,56.11522 0.2711,41.70232 0.2996,42.23508 2.5013,46.62577 1.6335,3.25733 3.3918,5.04838 6.5952,6.71806 3.9846,2.07683 4.3679,2.59269 4.3679,5.87812 v 3.6015 l -56.9134,-0.15364 c -31.3023,-0.0845 -58.4521,-0.31554 -60.3329,-0.51344 z M 17.52657,534.57855 v -9.11961 h 765.03261 765.03262 v 9.11961 9.11961 H 782.55918 17.52657 Z"
     style="fill:#ff0000;stroke-width:0.96846843" />
</svg>
